<svg width="28" height="28" viewBox="0 0 28 28" fill="none" xmlns="http://www.w3.org/2000/svg">
<path fill-rule="evenodd" clip-rule="evenodd" d="M13.9997 2C7.37243 2 2 7.37243 2 13.9997C2 20.6269 7.37243 25.9993 13.9997 25.9993C20.6269 25.9993 25.9993 20.6269 25.9993 13.9997C25.9993 7.37243 20.6269 2 13.9997 2ZM9.74085 9.74085C10.229 9.2527 11.0205 9.2527 11.5086 9.74085L13.9996 12.2319L16.4906 9.74085C16.9788 9.2527 17.7703 9.2527 18.2584 9.74085C18.7466 10.229 18.7466 11.0205 18.2584 11.5086L15.7674 13.9996L18.2584 16.4906C18.7466 16.9788 18.7466 17.7703 18.2584 18.2584C17.7703 18.7466 16.9788 18.7466 16.4906 18.2584L13.9996 15.7674L11.5086 18.2584C11.0205 18.7466 10.229 18.7466 9.74085 18.2584C9.2527 17.7703 9.2527 16.9788 9.74085 16.4906L12.2319 13.9996L9.74085 11.5086C9.2527 11.0205 9.2527 10.229 9.74085 9.74085Z" fill="#FE394D"/>
</svg>
