<svg width="28" height="28" viewBox="0 0 28 28" fill="none" xmlns="http://www.w3.org/2000/svg">
<path fill-rule="evenodd" clip-rule="evenodd" d="M13.9997 2C7.37243 2 2 7.37243 2 13.9997C2 20.6269 7.37243 25.9993 13.9997 25.9993C20.6269 25.9993 25.9993 20.6269 25.9993 13.9997C25.9993 7.37243 20.6269 2 13.9997 2ZM15.4069 13.6569C15.4069 12.9666 14.8473 12.4069 14.1569 12.4069C13.4666 12.4069 12.9069 12.9666 12.9069 13.6569V19.2817C12.9069 19.9721 13.4666 20.5317 14.1569 20.5317C14.8473 20.5317 15.4069 19.9721 15.4069 19.2817V13.6569ZM15.7969 8.94485C15.7969 9.81193 15.094 10.5148 14.2269 10.5148C13.3598 10.5148 12.6569 9.81193 12.6569 8.94485C12.6569 8.07776 13.3598 7.37485 14.2269 7.37485C15.094 7.37485 15.7969 8.07776 15.7969 8.94485Z" fill="#398EFE"/>
</svg>
