<svg width="28" height="28" viewBox="0 0 28 28" fill="none" xmlns="http://www.w3.org/2000/svg">
<path fill-rule="evenodd" clip-rule="evenodd" d="M13.9997 2C7.37243 2 2 7.37243 2 13.9997C2 20.6269 7.37243 25.9993 13.9997 25.9993C20.6269 25.9993 25.9993 20.6269 25.9993 13.9997C25.9993 7.37243 20.6269 2 13.9997 2ZM14.2269 20.7969C15.094 20.7969 15.7969 20.094 15.7969 19.2269C15.7969 18.3598 15.094 17.6569 14.2269 17.6569C13.3598 17.6569 12.6569 18.3598 12.6569 19.2269C12.6569 20.094 13.3598 20.7969 14.2269 20.7969ZM13.9996 10.6498C13.3922 10.6498 12.8997 11.1423 12.8997 11.7497V12.3122C12.8997 12.9473 12.3848 13.4622 11.7497 13.4622C11.1146 13.4622 10.5997 12.9473 10.5997 12.3122V11.7497C10.5997 9.872 12.1219 8.3498 13.9996 8.3498C15.8774 8.3498 17.3996 9.872 17.3996 11.7497V11.8862C17.3996 12.8241 17.027 13.7236 16.3638 14.3868L14.8128 15.9378C14.3637 16.3869 13.6356 16.3869 13.1865 15.9378C12.7374 15.4887 12.7374 14.7606 13.1865 14.3115L14.7374 12.7605C14.9693 12.5286 15.0996 12.2141 15.0996 11.8862V11.7497C15.0996 11.1423 14.6071 10.6498 13.9996 10.6498Z" fill="#646464"/>
</svg>
