<svg width="28" height="28" viewBox="0 0 28 28" fill="none" xmlns="http://www.w3.org/2000/svg">
<path fill-rule="evenodd" clip-rule="evenodd" d="M15.5683 3.21824C14.5424 2.92725 13.4559 2.92725 12.43 3.21824C11.1851 3.57137 10.2091 4.51685 9.22668 5.88689C8.24782 7.25197 7.17249 9.1722 5.78193 11.6554L5.78189 11.6554L5.75691 11.7L5.73211 11.7443C4.39619 14.1299 3.36193 15.9768 2.73195 17.4716C2.09863 18.9743 1.81002 20.2615 2.13386 21.4843C2.40171 22.4958 2.94046 23.4149 3.69206 24.1428C4.60074 25.0228 5.86482 25.3999 7.48544 25.5816C9.09749 25.7623 11.2142 25.7623 13.9484 25.7623H13.9991H14.0499C16.784 25.7623 18.9008 25.7623 20.5129 25.5816C22.1335 25.3999 23.3975 25.0228 24.3062 24.1428C25.0578 23.4149 25.5966 22.4958 25.8644 21.4843C26.1883 20.2615 25.8997 18.9743 25.2663 17.4716C24.6364 15.9768 23.6021 14.1299 22.2662 11.7444L22.2662 11.7443L22.2414 11.7L22.2164 11.6554L22.2164 11.6554C20.8258 9.17221 19.7505 7.25197 18.7716 5.88689C17.7892 4.51685 16.8132 3.57137 15.5683 3.21824ZM15.4432 11.2346C15.4432 10.5442 14.8836 9.98458 14.1932 9.98458C13.5029 9.98458 12.9432 10.5442 12.9432 11.2346V15.4739C12.9432 16.1642 13.5029 16.7239 14.1932 16.7239C14.8836 16.7239 15.4432 16.1642 15.4432 15.4739V11.2346ZM15.716 20.1349C15.716 20.9923 15.021 21.6874 14.1635 21.6874C13.3061 21.6874 12.6111 20.9923 12.6111 20.1349C12.6111 19.2775 13.3061 18.5824 14.1635 18.5824C15.021 18.5824 15.716 19.2775 15.716 20.1349Z" fill="#FEA839"/>
</svg>
